<svg width="558" height="493" viewBox="0 0 558 493" fill="none" xmlns="http://www.w3.org/2000/svg">
<g clip-path="url(#clip0)">
<path d="M37.6681 351.505C39.4558 373.067 48.7771 395.395 60.6521 408.664C81.9761 432.651 115.303 452.682 148.247 453.575C189.873 454.724 260.357 427.675 254.101 375.619C251.802 356.481 235.075 342.063 229.457 323.563C224.221 306.211 228.307 285.032 215.666 272.018C211.836 268.062 206.856 265.511 201.748 263.214C190.256 258.11 177.615 254.41 165.102 255.559C154.631 256.452 144.799 260.662 135.35 265.255C122.326 271.38 109.94 278.525 97.4265 285.414C88.4883 290.39 80.1885 291.539 70.6118 294.473C43.9249 302.511 35.6251 326.498 37.6681 351.505Z" fill="#EBF7FD"/>
<path d="M210.176 136.647C203.025 158.081 198.811 180.792 189.235 201.206C174.04 233.486 141.607 260.024 105.982 258.366C72.0165 256.707 42.7757 229.403 31.9222 197.251C20.941 165.099 25.6654 129.247 37.0297 97.222C43.5419 78.339 52.7355 59.9663 66.3982 45.1661C96.7881 12.6312 144.288 2.9345 188.724 0.382743C207.877 -0.765549 228.435 -0.382786 244.141 10.5898C265.976 26.0279 270.317 58.5629 252.441 78.7218C234.82 98.6255 219.369 109.215 210.176 136.647Z" fill="#EBF7FD"/>
<path d="M257.165 198.017C256.144 180.027 255.761 162.164 255.122 144.812C254.356 122.102 256.654 98.3703 268.402 78.977C278.617 62.0078 295.216 49.8869 311.944 39.2971C326.883 29.8556 342.461 21.052 359.699 16.8416C409.243 4.72074 444.74 41.7213 451.635 88.0357C455.083 111.129 454.827 134.86 461.34 157.316C475.385 206.31 526.333 228.382 537.314 279.29C546.508 322.032 533.739 370.643 506.924 404.837C496.709 417.978 483.047 428.823 467.085 433.672C405.54 452.81 315.519 374.853 287.555 325.349C265.72 287.073 259.719 242.417 257.165 198.017Z" fill="#EBF7FD"/>
<path d="M220.008 493C255.339 493 283.98 487.859 283.98 481.517C283.98 475.175 255.339 470.034 220.008 470.034C184.677 470.034 156.036 475.175 156.036 481.517C156.036 487.859 184.677 493 220.008 493Z" fill="#CEECFB"/>
<path d="M398.517 493C433.848 493 462.489 487.859 462.489 481.517C462.489 475.175 433.848 470.034 398.517 470.034C363.186 470.034 334.545 475.175 334.545 481.517C334.545 487.859 363.186 493 398.517 493Z" fill="#CEECFB"/>
<path d="M414.223 467.993C413.329 470.672 412.052 475.776 413.329 478.2C415.116 481.645 440.271 481.772 441.037 478.2C442.57 471.948 432.354 468.503 425.97 467.227C425.715 467.865 425.587 468.248 425.332 468.376C422.522 470.162 416.904 470.545 414.223 467.993Z" fill="#00B7A9"/>
<path d="M368.638 467.61C368.638 467.61 368.51 467.482 368.51 467.355C362.126 468.758 353.187 472.203 354.592 478.072C355.486 481.645 380.64 481.517 382.3 478.072C384.088 474.627 380.768 465.951 380.768 465.951C380.768 465.951 380.64 465.951 380.513 465.951C380.385 466.845 380.385 467.355 380.257 467.482C378.214 469.907 370.936 471.693 368.638 467.61Z" fill="#00B7A9"/>
<path d="M345.654 324.456C348.59 355.077 353.826 408.92 356.124 417.723C359.189 429.844 366.211 462.506 368.638 467.355C368.638 467.482 368.765 467.482 368.765 467.61C371.064 471.693 378.342 469.907 380.257 467.61C380.385 467.482 380.513 466.972 380.513 466.079C381.662 454.341 380.513 379.829 382.939 347.167L364.552 342.191C354.592 339.257 347.314 332.239 345.654 324.456Z" fill="#1B3447"/>
<path d="M347.697 310.549C346.547 310.167 345.398 309.784 344.249 309.273C344.504 312.208 344.887 316.163 345.271 320.756C345.271 319.608 345.398 318.46 345.781 317.184L347.697 310.549Z" fill="#1B3447"/>
<path d="M415.883 321.139L411.924 335.429C409.881 342.701 402.603 347.55 393.665 348.188C399.666 368.985 406.178 402.54 407.583 407.389C409.626 414.534 411.286 463.783 413.584 467.227C413.712 467.483 413.967 467.738 414.223 467.993C416.904 470.672 422.522 470.289 425.332 468.376C425.587 468.248 425.715 467.865 425.97 467.227C428.524 459.317 428.524 414.789 429.418 398.33C430.056 384.168 425.332 330.07 423.289 308.635C421.118 309.273 418.309 310.039 414.861 310.677C416.393 313.867 416.904 317.567 415.883 321.139Z" fill="#1B3447"/>
<path d="M335.055 240.503C337.992 240.121 342.078 239.865 346.675 239.61C347.186 236.421 347.697 233.103 348.207 230.041C343.1 230.424 337.482 229.531 334.162 228.255C332.502 233.614 329.182 244.714 329.82 247.776C329.693 244.331 331.225 241.014 335.055 240.503Z" fill="#FBBE91"/>
<path d="M348.207 230.169C351.4 211.158 354.464 195.592 355.996 193.551C357.018 192.148 358.678 190.999 360.593 189.979C349.101 194.827 335.822 208.606 331.48 226.214C331.352 226.851 332.374 227.617 334.289 228.255C337.482 229.531 343.1 230.552 348.207 230.169Z" fill="#00B7A9"/>
<path d="M387.408 194.827C400.815 193.934 399.028 184.875 399.028 184.875C399.028 184.875 397.751 182.834 396.602 180.154C394.048 181.558 391.239 182.323 388.302 182.323C384.471 182.323 380.896 180.92 377.831 178.751C377.065 181.558 375.788 184.875 373.618 186.661C373.618 186.661 374.128 195.72 387.408 194.827Z" fill="#FBBE91"/>
<path d="M399.283 271.507L384.471 267.424C376.299 265.128 369.914 260.024 366.978 253.9C358.55 255.304 349.995 256.707 343.994 257.345C340.418 282.352 337.992 305.446 340.035 306.849C341.312 307.742 342.717 308.508 344.377 309.146C345.398 309.656 346.547 310.039 347.824 310.422L349.995 302.766C352.804 292.687 365.701 287.456 378.725 291.028L397.368 296.132C405.923 298.428 412.435 304.042 415.116 310.294C418.436 309.656 421.373 308.891 423.544 308.253C426.225 307.36 427.885 306.594 428.141 305.956C428.907 303.915 427.63 285.67 425.714 264.618C420.479 271.507 410.009 274.442 399.283 271.507Z" fill="#00B7A9"/>
<path d="M355.996 193.551C354.592 195.592 351.4 211.158 348.207 230.169C347.697 233.231 347.186 236.42 346.675 239.738C352.804 239.483 359.955 239.355 366.595 239.355C373.745 214.348 387.535 199.548 403.369 187.554C400.815 186.023 399.027 185.13 399.027 185.13C399.027 185.13 400.815 194.189 387.408 195.082C374 195.975 373.617 186.916 373.617 186.916C373.617 186.916 365.956 187.682 360.465 190.234C358.55 190.999 356.89 192.147 355.996 193.551Z" fill="#00B7A9"/>
<path d="M476.152 7.01736C409.37 -11.2277 366.595 10.0795 351.91 63.794L347.824 78.5942C345.015 88.6737 353.443 99.7738 366.595 103.474L383.96 108.195C397.112 111.767 410.009 106.536 412.69 96.4565L417.67 78.2115C424.31 54.2249 439.25 48.4835 461.084 54.4801C482.919 60.4767 492.879 72.9803 486.239 97.0945C471.299 151.447 433.504 164.589 403.497 187.427C387.536 199.548 373.873 214.22 366.722 239.228C379.747 239.1 391.366 238.972 392.26 238.207C394.048 236.676 399.794 229.914 401.326 230.934C402.858 231.955 400.049 238.207 400.049 238.207C400.049 238.207 411.541 236.293 410.775 239.1C410.137 241.907 400.049 242.8 400.049 242.8C400.049 242.8 411.03 244.076 410.137 245.99C409.243 247.904 398.517 246.883 398.517 246.883C398.517 246.883 407.583 249.945 405.795 250.966C404.007 251.986 395.708 250.072 391.749 249.945C389.834 249.817 378.725 251.859 366.978 253.9C369.915 259.897 376.299 265.128 384.471 267.424L399.283 271.507C410.009 274.442 420.479 271.38 425.587 264.745C426.736 263.214 427.63 261.428 428.141 259.514V259.386C429.928 252.879 432.482 247.266 435.674 242.034C431.333 231.7 423.161 199.675 421.629 196.741C419.841 193.679 414.861 187.427 415.116 185.641C415.372 183.727 421.501 190.106 421.501 190.106C421.501 190.106 416.266 181.685 417.542 180.154C418.819 178.623 424.31 187.172 424.31 187.172C424.31 187.172 420.99 178.496 423.033 176.837C425.076 175.178 428.013 185.385 428.013 185.385C428.013 185.385 432.099 180.537 433.504 181.43C434.908 182.323 431.716 189.723 431.205 191.765C430.822 193.296 440.654 212.944 447.294 227.745C478.833 197.251 535.144 187.937 553.914 119.295C568.726 65.5802 542.933 25.39 476.152 7.01736Z" fill="#ED326F"/>
<path d="M411.924 335.429L415.882 321.139C416.904 317.567 416.393 313.994 414.989 310.549C412.179 304.17 405.667 298.684 397.24 296.387L378.597 291.283C365.445 287.711 352.549 292.942 349.867 303.022L347.697 310.677L345.909 317.311C345.526 318.46 345.398 319.608 345.398 320.884C345.398 322.16 345.526 323.436 345.781 324.584C347.441 332.239 354.719 339.384 364.679 342.191L383.066 347.167L383.322 347.295C386.897 348.315 390.472 348.57 393.792 348.315C402.603 347.55 409.881 342.701 411.924 335.429Z" fill="#ED326F"/>
<path d="M396.602 180.154C402.731 176.965 407.583 170.33 410.137 162.93C401.709 163.313 405.029 152.978 405.029 152.978C399.028 152.595 401.964 146.471 401.964 146.471C396.729 146.854 396.729 141.75 396.729 141.75C385.493 149.916 381.151 141.75 381.151 141.75C378.087 146.981 374.256 145.195 374.256 145.195C372.468 150.809 369.532 149.023 369.532 149.023C369.532 149.023 372.851 161.144 367.233 162.675C369.148 169.182 372.851 175.051 377.576 178.623C380.64 180.92 384.088 182.196 388.046 182.196C391.239 182.323 394.048 181.558 396.602 180.154Z" fill="#FBBE91"/>
<path d="M369.787 149.15C369.787 149.15 372.851 150.936 374.511 145.323C374.511 145.323 378.342 147.109 381.406 141.878C381.406 141.878 385.748 150.043 396.984 141.878C396.984 141.878 396.984 147.109 402.22 146.598C402.22 146.598 399.155 152.595 405.284 153.105C405.284 153.105 401.964 163.44 410.392 163.057C410.519 163.057 410.775 163.057 410.903 163.057C419.968 162.164 416.138 153.999 416.138 153.999C416.138 153.999 421.756 149.661 418.309 142.388C418.309 142.388 422.65 132.053 413.584 128.609C413.584 128.609 410.519 119.167 404.518 121.336C404.518 121.336 401.454 114.446 393.281 115.339C385.109 116.233 379.874 121.846 379.874 121.846C379.874 121.846 372.085 117.126 366.978 120.06C361.742 123.122 362.253 126.567 362.253 126.567C362.253 126.567 354.975 130.905 354.975 134.35C354.975 137.795 357.529 142.133 357.529 142.133C357.529 142.133 355.358 145.578 356.252 149.405C357.146 153.233 360.593 154.126 360.593 154.126C360.593 154.126 358.422 162.802 366.211 163.185C366.85 163.185 367.361 163.185 367.871 163.057C372.979 161.271 369.787 149.15 369.787 149.15Z" fill="#86613C"/>
<path d="M391.749 250.073C395.58 250.328 404.008 252.242 405.795 251.093C407.583 250.073 398.517 247.01 398.517 247.01C398.517 247.01 409.243 248.031 410.137 246.117C411.03 244.203 400.049 242.928 400.049 242.928C400.049 242.928 410.137 242.034 410.775 239.228C411.414 236.421 400.049 238.334 400.049 238.334C400.049 238.334 402.858 232.083 401.326 231.062C399.794 230.041 394.048 236.803 392.26 238.334C391.366 239.1 379.747 239.228 366.722 239.355C359.955 239.483 352.932 239.483 346.803 239.738C342.206 239.865 338.12 240.248 335.183 240.631C331.353 241.141 329.82 244.459 330.076 247.904C330.331 252.497 333.523 257.6 338.503 257.855C339.78 257.855 341.823 257.728 344.249 257.473C350.123 256.835 358.806 255.431 367.233 254.028C378.725 251.986 389.834 249.945 391.749 250.073Z" fill="#FBBE91"/>
<path d="M431.078 191.765C431.588 189.723 434.908 182.196 433.376 181.43C431.844 180.665 427.885 185.385 427.885 185.385C427.885 185.385 424.948 175.178 422.905 176.837C420.862 178.496 424.182 187.172 424.182 187.172C424.182 187.172 418.692 178.623 417.415 180.154C416.138 181.685 421.373 190.106 421.373 190.106C421.373 190.106 415.244 183.854 414.989 185.641C414.733 187.554 419.713 193.679 421.501 196.741C423.161 199.675 431.333 231.7 435.547 242.035C435.93 242.8 436.185 243.566 436.44 244.076C440.399 251.221 454.572 247.521 452.018 239.866C450.997 236.803 449.209 232.593 447.166 227.872C440.654 212.817 430.694 193.296 431.078 191.765Z" fill="#FBBE91"/>
<path d="M410.775 162.93C414.478 162.547 416.01 161.016 416.521 159.357C415.499 159.23 414.35 158.975 413.456 158.337C410.647 156.678 409.37 152.34 411.796 150.171C410.137 149.916 408.987 148.13 408.732 146.471C408.477 144.812 408.987 143.026 409.498 141.367C407.838 140.857 406.05 140.347 404.901 139.071C403.624 137.923 402.986 135.754 404.007 134.35C400.815 135.371 396.985 134.605 394.431 132.309C392.005 135.116 387.408 135.371 384.726 132.947C384.216 132.436 383.705 131.926 382.939 132.054C382.3 132.181 381.917 132.564 381.534 133.074C379.108 135.881 375.277 137.157 371.702 136.519C371.191 138.178 370.681 139.836 369.531 141.24C368.382 142.516 366.595 143.409 364.935 142.899C365.062 144.302 365.062 145.705 364.552 146.981C364.041 148.257 362.636 149.278 361.359 149.023C363.019 151.574 364.552 154.254 364.552 157.188C364.552 158.847 363.913 160.633 362.892 161.909C363.658 162.292 364.679 162.675 365.956 162.675C366.595 162.675 367.105 162.675 367.616 162.547C373.234 161.016 369.915 148.895 369.915 148.895C369.915 148.895 372.979 150.681 374.639 145.067C374.639 145.067 378.47 146.854 381.534 141.623C381.534 141.623 385.876 149.788 397.112 141.623C397.112 141.623 397.112 146.854 402.347 146.343C402.347 146.343 399.283 152.34 405.412 152.85C405.412 152.85 402.092 163.185 410.52 162.802C410.392 162.93 410.52 162.93 410.775 162.93Z" fill="#6E4E2E"/>
<path d="M396.602 180.154C394.048 181.558 391.239 182.323 388.302 182.323C384.471 182.323 380.896 180.92 377.831 178.751C377.065 181.558 375.788 184.875 373.618 186.661C373.618 186.661 373.618 186.789 373.618 187.172C375.022 187.172 376.555 187.172 377.959 187.044C382.045 186.789 386.131 186.278 389.834 184.747C392.388 183.727 394.814 182.196 396.602 180.154C396.602 180.282 396.602 180.154 396.602 180.154Z" fill="#F7A273"/>
<path d="M385.493 245.479C382.428 245.479 379.364 246.245 376.299 246.883C363.402 249.562 350.123 249.945 337.099 247.776C334.673 247.393 332.119 246.883 329.948 245.734C329.82 246.372 329.82 247.138 329.82 247.776C330.076 252.369 333.268 257.473 338.248 257.728C339.525 257.728 341.568 257.6 343.994 257.345C349.867 256.707 358.55 255.304 366.978 253.9C378.725 251.859 389.834 249.817 391.749 249.945C395.58 250.2 404.007 252.114 405.795 250.966C405.923 250.966 405.923 250.838 405.923 250.838C399.155 249.307 392.516 245.479 385.493 245.479Z" fill="#F7A273"/>
<path d="M447.677 247.266C446.145 245.862 444.868 244.076 443.846 242.417C438.739 234.507 435.291 225.703 431.844 216.9C427.63 205.799 423.416 194.061 415.116 185.513V185.641C414.861 187.554 419.841 193.679 421.629 196.741C423.288 199.675 431.461 231.7 435.674 242.034C436.057 242.8 436.313 243.566 436.568 244.076C438.739 247.904 443.846 248.669 447.677 247.266Z" fill="#F7A273"/>
<path d="M403.241 187.554V187.427C400.815 185.896 399.028 185.002 399.028 185.002C399.028 185.002 400.815 194.061 387.408 194.954C374.001 195.847 373.618 186.789 373.618 186.789C373.618 186.789 371.958 186.916 369.659 187.427C370.298 192.02 373.362 196.23 377.704 198.144C379.874 199.037 382.173 199.42 384.599 199.547C386.259 199.675 387.919 199.675 389.579 199.547C393.92 195.082 398.517 191.254 403.241 187.554Z" fill="#00A591"/>
<path d="M425.587 264.745C420.479 271.38 410.009 274.442 399.283 271.507L384.471 267.424C376.299 265.128 369.914 260.024 366.978 253.9C358.55 255.304 349.995 256.707 343.994 257.345C343.611 260.407 343.1 263.469 342.717 266.404C347.441 264.745 352.293 263.086 357.018 261.555C358.55 261.045 360.21 260.535 361.87 260.535C365.573 260.662 368.51 263.724 371.191 266.404C378.98 273.804 389.068 278.78 399.794 280.183C408.86 281.459 418.181 280.056 426.608 276.483C426.225 272.783 425.97 268.828 425.587 264.745Z" fill="#00A591"/>
<path d="M342.844 230.169C344.632 230.296 346.42 230.296 348.08 230.169C348.207 229.914 348.207 229.659 348.335 229.276C349.612 222.003 350.761 215.241 351.91 209.627C349.995 211.158 348.974 213.582 347.952 215.879C347.058 218.176 346.164 220.345 345.398 222.641C344.504 225.193 343.611 227.617 342.844 230.169Z" fill="#00A591"/>
<path d="M414.989 310.422C418.309 309.784 421.245 309.018 423.416 308.38C426.098 307.487 427.757 306.722 428.013 306.084C428.141 305.573 428.268 304.042 428.268 301.746C422.905 303.404 417.415 304.68 411.924 305.446C413.073 306.977 414.222 308.763 414.989 310.422Z" fill="#00A591"/>
<path d="M339.269 303.787C339.397 305.573 339.524 306.722 339.907 306.977C341.184 307.87 342.589 308.635 344.249 309.273C345.27 309.784 346.42 310.166 347.696 310.549L348.973 305.829C345.653 305.318 342.461 304.553 339.269 303.787Z" fill="#00A591"/>
<path d="M409.243 328.411C405.54 329.815 401.837 331.218 398.006 331.729C393.92 332.367 389.706 332.112 385.62 331.729C381.023 331.474 376.299 331.091 371.957 329.687C366.722 328.029 362.125 324.711 358.295 320.884C355.486 318.077 353.06 315.015 351.655 311.315C350.378 307.87 350.25 304.17 350.761 300.47C350.378 301.235 349.995 302.001 349.867 302.894L347.697 310.549L345.909 317.184C345.526 318.332 345.398 319.48 345.398 320.756C345.398 322.032 345.526 323.308 345.781 324.456C347.441 332.112 354.719 339.256 364.679 342.063L383.066 347.039L383.322 347.167C386.897 348.188 390.472 348.443 393.792 348.188C402.73 347.55 410.009 342.701 412.052 335.429L414.605 326.37C412.69 327.008 411.03 327.774 409.243 328.411Z" fill="#D02961"/>
<path d="M415.116 185.641C415.372 183.727 421.501 190.106 421.501 190.106C421.501 190.106 416.266 181.685 417.543 180.154C418.819 178.623 424.31 187.172 424.31 187.172C424.31 187.172 421.501 180.027 422.65 177.475C422.522 177.475 422.267 177.347 422.139 177.347C421.246 177.22 420.479 177.602 419.586 177.985C417.032 179.261 414.478 181.047 413.329 183.727C411.03 188.958 415.116 194.572 417.032 199.93C418.947 205.544 418.564 211.796 420.352 217.41C421.501 220.982 423.416 224.427 424.31 228.127C425.332 232.338 424.821 237.058 422.778 240.886C421.118 244.203 417.032 247.266 413.84 245.352C413.967 243.693 414.095 242.034 413.329 240.503C412.818 239.61 411.797 238.972 410.775 238.845C410.775 238.972 410.775 238.972 410.775 239.1C410.137 241.907 400.049 242.8 400.049 242.8C400.049 242.8 411.03 244.076 410.137 245.99C409.243 247.903 398.517 246.883 398.517 246.883C398.517 246.883 407.583 249.945 405.795 250.966C404.008 251.986 395.708 250.072 391.749 249.945C389.834 249.817 378.725 251.859 366.978 253.9C369.915 259.897 376.299 265.128 384.471 267.424L399.283 271.507C410.009 274.442 420.479 271.38 425.587 264.745C426.736 263.214 427.63 261.428 428.141 259.514V259.386C429.928 252.879 432.482 247.266 435.674 242.034C431.333 231.7 423.161 199.675 421.629 196.741C419.841 193.679 414.861 187.554 415.116 185.641Z" fill="#D02961"/>
<path d="M553.914 119.295C558.639 101.943 559.149 85.9943 555.574 71.832C554.17 80.3804 552.51 88.8012 550.339 97.0945C543.444 122.484 528.759 145.45 509.351 163.057C491.73 179.006 470.278 189.213 448.699 198.654C444.485 200.441 440.143 202.227 435.674 202.737C438.994 210.01 443.591 219.451 447.294 227.617C478.833 197.251 535.016 187.937 553.914 119.295Z" fill="#D02961"/>
<path d="M484.452 49.7592C478.322 39.4246 466.064 33.8107 454.062 32.5349C447.933 31.8969 441.548 32.1521 435.547 33.8107C423.672 37.2556 414.095 46.3144 407.2 56.649C400.432 66.9836 395.963 78.5941 391.239 90.077C389.196 94.9254 386.897 99.9013 382.684 103.091C380.513 104.75 377.831 105.643 375.15 105.898L383.833 108.322C396.985 111.895 409.881 106.663 412.563 96.584L417.543 78.3389C424.182 54.3524 439.122 48.6109 460.957 54.6076C480.238 59.8387 490.198 70.3009 487.771 89.0563C489.942 81.5286 490.198 73.4906 489.176 65.5801C488.538 60.0939 487.261 54.6076 484.452 49.7592Z" fill="#D02961"/>
<path d="M380.513 466.079C380.385 466.972 380.385 467.482 380.257 467.61C379.747 468.248 378.725 468.886 377.448 469.269C376.682 471.055 375.788 472.841 374.256 474.117C373.107 475.138 371.575 475.648 370.042 476.031C364.935 477.434 359.572 477.434 354.464 476.031C354.337 476.669 354.337 477.307 354.592 478.072C355.486 481.645 380.64 481.517 382.3 478.072C384.088 474.627 380.768 465.951 380.768 465.951C380.768 465.951 380.64 466.079 380.513 466.079Z" fill="#00A591"/>
<path d="M441.037 478.072C441.293 477.179 441.165 476.413 441.037 475.648C436.185 477.051 430.95 477.179 425.97 476.031C423.927 475.52 421.756 474.755 420.224 473.351C419.202 472.458 418.436 471.055 418.309 469.779C416.776 469.524 415.244 469.013 414.223 467.993C413.329 470.672 412.052 475.776 413.329 478.2C415.116 481.517 440.271 481.645 441.037 478.072Z" fill="#00A591"/>
<path d="M380.257 467.61C380.385 467.482 380.513 466.972 380.513 466.079C381.662 454.341 380.513 379.83 382.939 347.167L371.191 343.977C371.191 344.232 371.064 344.615 371.064 344.87C365.956 378.171 366.212 412.237 371.958 445.41C373.362 453.575 375.022 462.251 373.107 470.162C375.916 470.162 378.98 469.014 380.257 467.61Z" fill="#0D2536"/>
<path d="M416.266 396.926C413.84 379.064 407.966 361.84 405.795 343.977C402.475 346.274 398.389 347.805 393.665 348.188C399.666 368.985 406.178 402.54 407.583 407.389C409.626 414.533 411.286 463.782 413.584 467.227C413.712 467.482 413.967 467.738 414.223 467.993C414.989 468.758 416.01 469.269 417.16 469.524C416.521 445.282 419.458 420.913 416.266 396.926Z" fill="#0D2536"/>
<path d="M405.157 152.978C399.155 152.595 402.092 146.471 402.092 146.471C396.857 146.854 396.857 141.75 396.857 141.75C385.62 149.916 381.279 141.75 381.279 141.75C378.214 146.981 374.384 145.195 374.384 145.195C372.596 150.809 369.659 149.023 369.659 149.023C369.659 149.023 372.979 161.144 367.361 162.675C367.489 163.313 367.744 163.823 367.999 164.333C369.915 163.951 371.575 162.292 372.341 160.378C373.362 157.954 373.107 155.147 372.724 152.595C373.873 152.723 375.022 152.085 375.661 151.192C376.299 150.299 376.682 149.15 377.065 148.13C378.725 148.385 380.513 147.874 381.79 146.854C383.067 148.768 385.493 149.533 387.791 149.533C390.089 149.406 392.26 148.64 394.303 147.747C394.686 149.788 396.346 151.575 398.389 151.957C398.9 152.085 399.411 152.085 399.794 152.34C401.326 153.233 401.071 156.423 402.858 156.423C401.964 160.761 403.369 166.12 407.455 167.906C407.583 167.906 407.71 168.033 407.838 168.033C408.732 166.375 409.498 164.589 410.137 162.802C401.837 163.313 405.157 152.978 405.157 152.978Z" fill="#F7A273"/>
<path d="M382.428 157.571C382.045 156.678 380.896 156.168 379.874 156.55C379.236 156.806 378.98 157.061 378.853 157.571C378.597 158.209 378.597 158.975 378.597 159.74C378.597 160.123 378.597 160.506 378.725 160.888C379.363 162.547 382.172 162.547 382.683 160.888C382.811 160.506 382.811 160.123 382.811 159.74C382.683 158.975 382.811 158.209 382.428 157.571Z" fill="#6E4E2E"/>
<path d="M383.449 153.106C382.811 152.34 381.789 152.212 380.768 152.34C379.746 152.468 378.98 153.106 378.214 153.743C377.32 154.509 378.214 155.912 379.363 155.657C379.874 155.53 380.513 155.274 381.023 155.274C381.279 155.274 381.534 155.274 381.789 155.53C383.066 156.295 384.599 154.381 383.449 153.106Z" fill="#6E4E2E"/>
<path d="M397.623 157.571C397.24 156.678 396.091 156.168 395.069 156.55C394.431 156.806 394.175 157.061 394.048 157.571C393.792 158.209 393.792 158.975 393.792 159.74C393.792 160.123 393.792 160.506 393.92 160.888C394.558 162.547 397.368 162.547 397.878 160.888C398.006 160.506 398.006 160.123 398.006 159.74C397.878 158.975 398.006 158.209 397.623 157.571Z" fill="#6E4E2E"/>
<path d="M393.154 153.106C393.792 152.34 394.814 152.212 395.835 152.34C396.857 152.468 397.623 153.106 398.389 153.743C399.283 154.509 398.389 155.912 397.24 155.657C396.729 155.53 396.091 155.274 395.58 155.274C395.324 155.274 395.069 155.274 394.814 155.53C393.537 156.295 392.005 154.381 393.154 153.106Z" fill="#6E4E2E"/>
<path d="M390.345 165.609C389.962 165.354 389.579 165.737 389.323 165.864C388.429 166.247 387.408 166.247 386.642 165.737C386.259 165.482 385.876 165.992 386.131 166.247C386.642 167.14 387.408 167.523 388.302 167.523C389.196 167.523 390.345 167.268 390.6 166.375C390.6 166.12 390.6 165.864 390.345 165.609Z" fill="#F7A273"/>
<path d="M391.877 170.202C390.855 170.458 390.089 171.223 388.94 171.351C387.791 171.606 386.897 171.351 385.748 170.84C385.365 170.713 385.237 171.223 385.365 171.478C386.897 173.392 390.983 172.882 392.26 170.84C392.643 170.585 392.26 170.202 391.877 170.202Z" fill="#F7A273"/>
<path d="M389.195 173.902C388.94 173.775 388.685 173.775 388.429 173.775C388.046 173.902 388.046 174.413 388.429 174.413C388.685 174.54 388.94 174.54 389.195 174.285C389.323 174.285 389.323 174.03 389.195 173.902Z" fill="#F7A273"/>
<path d="M380.385 157.571C380.385 157.571 380.257 157.571 380.385 157.571C380.13 157.316 379.619 157.316 379.491 157.444C379.491 157.444 379.491 157.444 379.491 157.571C379.108 158.082 379.364 158.72 380.002 158.72C380.513 158.847 380.768 158.082 380.385 157.571Z" fill="white"/>
<path d="M395.452 157.571C395.325 157.571 395.325 157.571 395.452 157.571C395.197 157.316 394.686 157.316 394.558 157.444C394.558 157.444 394.558 157.444 394.558 157.571C394.175 158.082 394.431 158.72 395.069 158.72C395.58 158.847 395.708 158.082 395.452 157.571Z" fill="white"/>
<path d="M264.826 261.938C265.082 266.021 265.592 270.231 266.103 274.442C268.146 268.7 284.746 254.028 286.661 247.266C288.193 242.034 272.105 225.193 264.443 217.538C263.805 228.638 263.549 243.566 264.826 261.938Z" fill="#DF2B46"/>
<path d="M219.369 147.619C215.539 156.04 213.496 164.206 213.496 164.206C215.411 172.754 215.028 185.896 213.113 198.017C216.432 190.999 219.88 184.747 223.966 182.961C226.392 181.303 231.627 180.282 231.627 180.282C233.926 177.985 234.692 173.903 234.947 170.585C226.903 167.268 221.157 157.699 219.369 147.619Z" fill="#DF2B46"/>
<path d="M262.784 153.616C259.719 161.399 254.356 168.033 247.589 170.585C248.738 175.816 250.653 181.685 250.653 181.685C250.653 181.685 263.294 189.723 265.337 192.275C271.339 198.144 278.617 206.82 285.129 215.879C278.489 200.058 272.488 180.665 274.02 161.526C269.679 161.654 266.104 158.082 262.784 153.616Z" fill="#DF2B46"/>
<path d="M200.599 238.334C199.195 249.179 201.11 262.321 210.942 270.997C214.134 255.304 216.688 237.824 218.603 222.641C215.028 229.148 209.282 235.91 200.599 238.334Z" fill="#DF2B46"/>
<path d="M201.876 465.824C201.876 465.824 182.595 472.841 182.212 478.327C181.956 482.41 206.983 482.665 211.835 480.879C216.688 479.093 213.751 469.396 211.325 466.589C208.899 471.82 202.642 470.8 201.876 465.824Z" fill="#ED326F"/>
<path d="M241.715 466.845C241.715 466.717 241.715 466.462 241.587 466.334C239.672 468.886 234.437 476.796 235.331 481.262C236.48 486.748 251.675 486.748 255.122 482.155C257.804 478.71 253.335 470.545 251.164 466.845V466.972C249.249 472.331 242.864 471.693 241.715 466.845Z" fill="#ED326F"/>
<path d="M241.715 466.334C241.715 466.59 241.715 466.717 241.843 466.845C242.992 471.693 249.376 472.331 251.292 466.845V466.717C253.207 461.103 262.145 408.282 264.571 390.164C257.932 391.695 250.398 392.716 242.481 392.971C242.098 408.154 240.821 459.317 241.715 466.334Z" fill="#FBBE91"/>
<path d="M208.516 389.144C207.494 398.585 201.11 461.231 201.876 465.824C202.642 470.8 208.899 471.821 211.325 466.589C213.496 461.996 225.881 412.109 229.967 392.716C228.946 392.588 228.052 392.588 227.031 392.461C220.263 391.695 214.006 390.547 208.516 389.144Z" fill="#FBBE91"/>
<path d="M300.707 245.479C299.558 238.462 293.046 226.979 285.001 215.879C278.617 206.948 271.339 198.272 265.209 192.275C266.359 193.806 265.082 202.227 264.316 217.41C271.977 225.065 288.066 241.907 286.534 247.138C284.618 253.9 268.019 268.573 265.976 274.314C266.359 277.504 266.869 280.694 267.508 283.883C268.657 285.159 270.317 286.18 272.488 286.818C278.872 288.604 280.532 284.521 280.021 282.48C279.383 280.438 272.871 282.225 274.275 277.632C275.552 273.676 302.75 258.111 300.707 245.479Z" fill="#FBBE91"/>
<path d="M241.332 171.861C239.161 171.861 236.991 171.351 235.075 170.585C234.82 173.902 234.054 177.985 231.755 180.282C231.755 180.282 231.117 188.575 239.289 189.213C247.333 189.851 250.781 181.685 250.781 181.685C250.781 181.685 248.738 175.816 247.716 170.585C245.546 171.351 243.503 171.861 241.332 171.861Z" fill="#FBBE91"/>
<path d="M218.603 222.641C221.157 202.099 222.561 185.896 222.817 184.62C222.817 184.11 223.327 183.472 224.094 183.089C220.008 184.875 216.56 190.999 213.24 198.144C208.388 208.606 203.919 220.982 198.684 223.789C193.831 226.341 185.404 224.045 178.892 221.493C176.466 225.703 174.167 230.041 172.124 234.252C177.87 236.676 185.276 238.972 192.938 239.355C195.747 239.483 198.428 239.1 200.727 238.462C209.282 235.91 215.028 229.148 218.603 222.641Z" fill="#FBBE91"/>
<path d="M266.103 274.442C265.465 270.104 265.082 265.893 264.826 261.938C263.549 243.565 263.933 228.765 264.443 217.538C265.209 202.355 266.486 193.934 265.337 192.403C263.294 189.851 250.653 181.813 250.653 181.813C250.653 181.813 247.205 189.851 239.161 189.341C231.117 188.703 231.627 180.409 231.627 180.409C231.627 180.409 226.392 181.43 223.966 183.089C223.327 183.599 222.817 184.109 222.689 184.62C222.561 186.023 221.157 202.099 218.475 222.641C216.56 237.824 214.006 255.304 210.814 270.997C210.048 274.569 209.282 278.142 208.516 281.459C202.642 306.466 190.256 334.791 182.595 352.781L184.893 362.605C186.042 367.581 184.51 372.685 181.062 377.023C186.17 381.233 195.236 385.954 208.26 389.143C213.751 390.547 220.008 391.695 226.775 392.333C227.797 392.461 228.818 392.588 229.712 392.588C233.926 392.971 238.139 392.971 242.225 392.843C250.142 392.588 257.548 391.568 264.316 390.037C280.277 386.336 291.386 379.957 290.747 374.854C289.726 367.581 274.148 323.563 267.38 284.011C266.997 280.821 266.486 277.631 266.103 274.442Z" fill="#4DB7E8"/>
<path d="M210.048 144.812C210.176 142.899 210.303 140.857 210.559 138.688C211.069 128.354 210.048 117.253 207.239 105.005C194.725 50.6525 152.843 27.6867 85.4237 43.2524C17.8763 58.8181 -9.57674 97.8601 2.93676 152.213L6.38436 167.14C8.68276 177.347 21.4516 183.089 34.6036 180.027L52.0969 175.944C65.3766 172.882 74.1871 162.164 71.8887 151.957L67.675 133.712C62.0567 109.471 72.5271 97.3497 94.6173 92.2462C116.707 87.1427 131.392 93.3945 137.01 117.764C156.546 202.227 82.4869 226.469 99.5972 300.725C99.8525 301.746 100.108 302.766 100.363 303.787C103.045 313.611 115.558 318.97 128.455 316.036L143.394 312.591C156.802 309.529 165.485 298.556 163.058 288.349V288.221C158.462 268.19 163.569 251.221 171.869 234.379C173.912 230.169 176.338 225.958 178.637 221.62C191.405 199.037 206.856 175.816 210.048 144.812Z" fill="#00B7A9"/>
<path d="M185.021 362.605L182.723 352.781L181.701 348.06C179.403 337.853 166.634 332.112 153.482 335.174L134.712 339.512C121.432 342.574 112.622 353.291 114.92 363.498L118.24 377.916C120.538 388.123 133.307 393.864 146.459 390.802L165.229 386.464C171.997 384.933 177.615 381.361 181.19 376.895C184.638 372.685 186.298 367.581 185.021 362.605Z" fill="#00B7A9"/>
<path d="M234.947 170.585C236.863 171.351 239.033 171.861 241.204 171.861C243.375 171.861 245.418 171.478 247.461 170.713C254.228 168.034 259.591 161.399 262.656 153.744C257.165 146.216 252.441 136.137 246.184 135.881C236.224 135.499 234.053 129.885 234.053 129.885C227.669 132.181 222.689 140.092 219.114 147.875C221.157 157.699 226.903 167.268 234.947 170.585Z" fill="#FBBE91"/>
<path d="M213.623 164.206C213.623 164.206 215.666 156.04 219.497 147.619C222.944 139.964 228.052 131.926 234.436 129.629C234.436 129.629 236.607 135.243 246.567 135.626C252.824 135.881 257.42 145.961 263.039 153.488C266.359 157.954 269.934 161.526 274.275 161.526C274.275 161.526 282.064 133.457 267.763 114.064C253.462 94.6703 216.049 104.112 211.708 131.288C211.325 133.967 210.942 136.392 210.686 138.561C210.431 140.857 210.303 142.899 210.176 144.685C209.409 160.506 213.623 164.206 213.623 164.206Z" fill="#EF4E64"/>
<path d="M275.935 148.13C271.849 147.364 268.146 145.45 265.209 142.516C261.634 138.943 259.208 134.095 254.867 131.416C251.674 129.502 247.844 129.119 244.268 127.588C240.821 126.185 237.501 122.995 238.012 119.295C227.541 126.312 218.986 136.392 214.006 147.875C213.495 149.023 212.985 150.299 211.963 150.937C211.452 151.32 210.686 151.32 210.176 151.192C210.686 161.527 213.751 164.206 213.751 164.206C213.751 164.206 215.794 156.04 219.624 147.619C223.072 139.964 228.18 131.926 234.564 129.63C234.564 129.63 236.735 135.243 246.695 135.626C252.951 135.881 257.548 145.961 263.166 153.489C266.486 157.954 270.062 161.527 274.403 161.527C274.02 161.654 275.552 156.04 275.935 148.13Z" fill="#DF2B46"/>
<path d="M249.121 176.454C248.61 174.668 248.099 172.627 247.588 170.585C245.545 171.351 243.502 171.733 241.332 171.733C239.161 171.733 236.99 171.223 235.075 170.458C235.075 170.968 234.947 171.606 234.947 172.244C238.65 175.178 243.502 176.582 248.227 176.454C248.482 176.582 248.738 176.582 249.121 176.454Z" fill="#F7A273"/>
<path d="M246.312 135.754C236.352 135.371 234.181 129.757 234.181 129.757C227.797 132.054 222.817 139.964 219.242 147.747C219.497 149.023 219.752 150.171 220.008 151.319C222.434 144.812 227.286 139.326 233.287 135.881C234.181 137.795 236.352 138.816 238.395 139.199C240.438 139.581 242.736 139.581 244.652 140.474C247.972 142.006 249.632 145.706 252.058 148.385C253.59 150.044 255.378 151.319 256.655 153.233C257.931 155.02 258.698 157.316 259.591 159.358C260.741 157.571 261.762 155.53 262.528 153.488C257.293 146.088 252.568 136.009 246.312 135.754Z" fill="#F7A273"/>
<path d="M218.603 222.641C219.242 217.282 219.88 212.306 220.391 207.841C218.859 211.541 217.199 215.113 215.156 218.558C211.453 224.81 205.834 230.552 198.811 232.338C194.342 233.486 189.618 232.976 185.021 232.465C181.318 232.083 177.487 231.572 174.295 229.658C173.529 231.189 172.763 232.721 171.997 234.252C177.743 236.676 185.149 238.972 192.81 239.355C195.619 239.483 198.301 239.1 200.599 238.462C209.282 235.91 215.028 229.148 218.603 222.641Z" fill="#F7A273"/>
<path d="M272.105 215.624C269.679 213.327 267.38 211.031 264.954 208.606C264.826 211.286 264.571 214.22 264.443 217.41C272.105 225.065 288.193 241.907 286.661 247.138C284.746 253.9 268.146 268.573 266.103 274.314C266.486 277.504 266.997 280.694 267.636 283.883C268.019 284.394 268.657 284.776 269.168 285.159C268.146 283.245 267.636 281.332 268.146 279.29C268.657 277.504 269.934 275.973 271.211 274.569C275.425 269.976 279.638 265.256 283.852 260.662C287.172 257.09 290.492 253.262 291.386 248.414C292.024 244.714 291.13 240.886 289.598 237.441C285.767 229.021 278.872 222.258 272.105 215.624Z" fill="#F7A273"/>
<path d="M249.504 191.127C251.675 189.213 252.824 186.534 253.845 183.727C252.058 182.451 250.653 181.685 250.653 181.685C250.653 181.685 247.205 189.723 239.161 189.213C231.117 188.575 231.627 180.282 231.627 180.282C231.627 180.282 230.35 180.537 228.691 181.047C228.435 183.472 228.691 186.023 229.584 188.448C230.095 189.851 230.734 191.255 231.755 192.403C234.692 195.337 239.544 195.21 243.502 194.061C245.801 193.424 247.844 192.53 249.504 191.127Z" fill="#429CC6"/>
<path d="M264.443 217.538C265.209 202.355 266.486 193.934 265.337 192.403C264.954 191.892 264.06 191.127 263.039 190.361C262.4 195.465 260.868 200.568 260.996 205.672C261.123 210.265 262.4 214.731 264.443 218.941C264.315 218.303 264.443 217.92 264.443 217.538Z" fill="#429CC6"/>
<path d="M222.817 184.62C222.689 185.896 221.54 199.42 219.242 217.538C219.497 216.9 219.752 216.389 220.008 215.751C223.2 207.713 224.605 199.165 225.882 190.617C226.392 187.682 226.775 184.748 226.52 181.813C225.626 182.196 224.605 182.579 223.966 183.089C223.328 183.472 222.817 183.982 222.817 184.62Z" fill="#429CC6"/>
<path d="M267.253 308.125C262.145 335.046 240.821 357.502 214.9 366.433C204.941 369.878 194.47 371.281 184 372.685C183.361 374.216 182.467 375.747 181.318 377.15C186.426 381.361 195.492 386.081 208.516 389.271C214.006 390.675 220.263 391.823 227.031 392.461C228.052 392.588 229.074 392.716 229.968 392.716C234.181 393.099 238.395 393.099 242.481 392.971C250.398 392.716 257.804 391.695 264.571 390.164C280.532 386.464 291.641 380.085 291.003 374.981C290.109 368.092 275.936 328.284 268.785 290.518C268.785 296.26 268.402 302.256 267.253 308.125Z" fill="#429CC6"/>
<path d="M242.481 392.844C242.481 393.226 242.481 393.609 242.481 393.992C248.227 398.585 255.505 401.392 262.783 401.775C263.55 397.182 264.06 393.099 264.443 390.037C257.931 391.568 250.398 392.588 242.481 392.844Z" fill="#F7A273"/>
<path d="M208.516 389.144C208.388 390.037 208.26 391.185 208.133 392.844C212.219 397.309 216.688 401.52 222.051 404.199C223.583 404.964 225.243 405.602 227.031 406.113C228.307 400.882 229.329 396.288 230.095 392.716C229.074 392.588 228.18 392.588 227.158 392.461C220.263 391.695 214.006 390.547 208.516 389.144Z" fill="#F7A273"/>
<path d="M245.545 485.345C249.631 485.217 253.717 484.069 255.25 482.028C257.931 478.583 253.462 470.417 251.291 466.717V466.845C250.653 468.631 249.376 469.779 248.099 470.417C249.887 473.734 249.121 478.455 247.333 482.155C246.822 483.176 246.184 484.324 245.545 485.345Z" fill="#D02961"/>
<path d="M211.835 480.879C216.688 479.093 213.751 469.396 211.325 466.589C210.303 468.631 208.771 469.779 207.239 470.034C205.834 471.438 204.43 472.714 202.77 473.862C197.151 477.689 189.362 479.093 183.361 476.158C182.722 476.924 182.339 477.689 182.212 478.455C181.956 482.283 206.983 482.665 211.835 480.879Z" fill="#D02961"/>
<path d="M181.318 377.023C184.766 372.685 186.298 367.581 185.149 362.605L182.85 352.781L181.829 348.06C180.297 341.553 174.678 336.96 167.4 335.174C169.571 341.17 170.592 347.677 170.592 354.057C170.72 358.267 170.337 362.733 168.805 366.688C166.762 371.919 162.548 376.002 157.951 379.192C148.247 385.826 135.989 388.633 124.241 387.102C129.732 391.313 138.032 392.971 146.587 391.057L165.357 386.719C172.124 385.061 177.743 381.488 181.318 377.023Z" fill="#00A591"/>
<path d="M94.6172 92.2463C111.217 88.4186 123.73 91.098 131.264 102.964C129.476 99.3912 127.306 95.8187 125.007 92.5014C122.581 89.0565 119.772 85.7393 116.324 83.3151C109.301 78.2116 99.9801 77.3185 91.2973 78.084C81.3376 78.8495 71.2502 81.6564 63.0781 87.3979C54.906 93.0118 48.5216 101.815 46.8616 111.64C44.3078 127.716 54.2676 143.792 52.7353 159.995C52.0968 166.375 49.5431 172.499 45.7124 177.475L52.2245 175.944C65.5042 172.882 74.3147 162.164 72.0163 151.957L67.6749 133.712C62.0566 109.471 72.527 97.2222 94.6172 92.2463Z" fill="#00A591"/>
<path d="M199.322 82.1667C199.322 82.4219 199.322 82.5495 199.322 82.8047C200.599 96.967 201.493 111.129 201.748 125.291C202.004 134.861 202.004 144.557 199.067 153.744C196.641 161.399 192.299 168.416 187.958 175.178C181.829 184.62 175.444 194.061 168.932 203.248C157.313 219.707 144.671 236.676 141.607 256.58C139.436 270.869 142.373 285.925 137.648 299.449C135.478 305.701 131.902 311.06 127.561 316.036C127.816 316.036 128.199 315.908 128.455 315.908L143.394 312.463C156.802 309.401 165.485 298.428 163.059 288.221V288.094C158.462 268.062 163.569 251.093 171.869 234.252C173.912 230.041 176.338 225.831 178.637 221.493C191.278 199.165 206.728 175.816 209.92 144.94C210.048 143.026 210.176 140.985 210.431 138.816C210.942 128.481 209.92 117.381 207.111 105.133C205.196 96.5842 202.642 89.0565 199.322 82.1667Z" fill="#00A591"/>
<path d="M234.692 147.109C234.309 146.216 233.16 145.706 232.138 146.088C231.5 146.343 231.244 146.599 231.117 147.109C230.861 147.747 230.861 148.512 230.861 149.278C230.861 149.661 230.861 150.044 230.989 150.426C231.627 152.085 234.437 152.085 234.947 150.426C235.075 150.044 235.075 149.661 235.075 149.278C234.947 148.512 235.075 147.875 234.692 147.109Z" fill="#6E4E2E"/>
<path d="M234.692 143.026C234.309 142.516 233.67 142.388 233.032 142.516C232.394 142.644 231.883 143.026 231.372 143.409C230.861 143.919 231.372 144.813 232.01 144.557C232.266 144.43 232.649 144.302 233.032 144.302C233.287 144.302 233.287 144.302 233.543 144.43C234.564 145.068 235.458 143.792 234.692 143.026Z" fill="#EF4E64"/>
<path d="M249.887 147.109C249.504 146.216 248.355 145.706 247.333 146.088C246.695 146.343 246.439 146.599 246.312 147.109C246.056 147.747 246.056 148.512 246.056 149.278C246.056 149.661 246.056 150.044 246.184 150.426C246.822 152.085 249.631 152.085 250.142 150.426C250.27 150.044 250.27 149.661 250.27 149.278C250.142 148.512 250.27 147.875 249.887 147.109Z" fill="#6E4E2E"/>
<path d="M246.312 143.026C246.695 142.516 247.333 142.388 247.972 142.516C248.61 142.644 249.121 143.026 249.632 143.409C250.142 143.919 249.632 144.813 248.993 144.557C248.738 144.43 248.355 144.302 247.972 144.302C247.716 144.302 247.716 144.302 247.461 144.43C246.567 145.068 245.673 143.792 246.312 143.026Z" fill="#EF4E64"/>
<path d="M242.608 155.275C242.225 155.019 241.842 155.402 241.587 155.53C240.693 155.913 239.672 155.913 238.905 155.402C238.522 155.147 238.139 155.657 238.395 155.913C238.905 156.806 239.672 157.188 240.565 157.188C241.459 157.188 242.608 156.933 242.864 156.04C242.864 155.785 242.864 155.402 242.608 155.275Z" fill="#F7A273"/>
<path d="M244.141 159.868C243.119 160.123 242.353 160.889 241.204 161.016C240.055 161.271 239.161 161.016 238.012 160.506C237.629 160.378 237.501 160.889 237.629 161.144C239.161 163.058 243.247 162.547 244.524 160.506C244.907 160.123 244.524 159.74 244.141 159.868Z" fill="#F37D68"/>
<path d="M241.459 163.568C241.204 163.44 240.949 163.44 240.693 163.44C240.31 163.568 240.31 164.078 240.693 164.078C240.949 164.206 241.204 164.206 241.459 163.951C241.587 163.951 241.587 163.695 241.459 163.568Z" fill="#F7A273"/>
<path d="M232.649 147.237C232.521 147.237 232.521 147.237 232.649 147.237C232.394 146.981 231.883 146.981 231.755 147.109C231.755 147.109 231.755 147.109 231.755 147.237C231.372 147.747 231.627 148.385 232.266 148.385C232.777 148.385 232.904 147.747 232.649 147.237Z" fill="white"/>
<path d="M247.588 147.237C247.333 146.981 246.822 146.981 246.695 147.109C246.695 147.109 246.695 147.109 246.695 147.237C246.312 147.747 246.567 148.385 247.205 148.385C247.844 148.385 247.972 147.747 247.588 147.237Z" fill="white"/>
<path d="M255.505 154.254C255.505 155.657 254.1 156.678 252.313 156.678C250.525 156.678 249.121 155.53 249.121 154.254C249.121 152.851 250.525 151.83 252.313 151.83C254.1 151.83 255.505 152.851 255.505 154.254Z" fill="#F37D68"/>
<path d="M231.883 154.254C231.883 155.657 230.478 156.678 228.691 156.678C226.903 156.678 225.498 155.53 225.498 154.254C225.498 152.851 226.903 151.83 228.691 151.83C230.478 151.83 231.883 152.851 231.883 154.254Z" fill="#F37D68"/>
<path d="M237.884 201.972C236.607 201.206 235.33 201.844 234.564 202.865C234.437 202.992 234.309 203.12 234.181 203.248C234.054 203.12 234.054 203.12 233.926 202.992C233.16 202.227 232.394 201.589 231.244 201.717C229.84 201.844 229.457 203.63 230.606 204.268C230.606 204.268 230.606 204.396 230.734 204.651C230.861 204.906 230.861 205.289 230.989 205.544C231.372 206.565 232.011 207.458 233.032 207.968C235.458 209.117 237.629 207.33 238.906 205.417C239.544 204.268 239.033 202.61 237.884 201.972Z" fill="#97DAF8"/>
<path d="M253.334 217.537C252.951 217.793 252.44 217.665 251.93 217.282C251.291 216.9 250.781 216.006 250.142 215.496C249.376 214.986 248.354 215.368 247.971 216.134C246.694 217.92 248.482 220.344 250.014 221.238C251.802 222.258 253.845 222.258 255.76 221.365C258.187 220.217 255.888 216.262 253.334 217.537Z" fill="#97DAF8"/>
<path d="M231.755 226.341C231.244 225.321 230.35 224.938 229.201 225.065C229.584 225.065 228.946 225.065 228.946 225.065C228.818 225.065 228.307 225.193 228.691 225.065C228.435 224.938 228.435 224.938 228.563 225.065C228.691 225.193 228.691 225.065 228.435 224.938C228.435 224.938 227.924 224.555 228.18 224.81L228.052 224.683C228.18 224.81 228.18 224.81 228.052 224.555C228.052 224.427 227.924 224.172 227.924 224.172C227.797 223.662 227.669 223.279 227.414 222.896C226.903 222.131 226.009 221.621 225.243 222.258C224.732 222.514 224.477 222.769 224.221 223.279C223.966 223.79 223.838 224.427 223.838 224.938C223.838 226.086 224.349 227.234 225.115 228.127C226.52 229.786 229.329 230.296 231.117 229.021C231.755 228.51 232.266 227.362 231.755 226.341Z" fill="#97DAF8"/>
<path d="M243.502 239.61C243.247 237.952 240.949 237.952 240.182 239.227C240.055 239.483 239.927 239.61 239.799 239.865C239.289 238.972 238.778 238.334 237.756 237.824C236.352 237.186 235.458 239.483 236.735 240.248C237.118 240.503 237.246 241.141 237.373 241.652C237.501 242.162 237.756 242.545 238.012 242.928C237.756 242.672 238.267 243.183 238.267 243.31C238.395 243.438 238.65 243.693 238.905 243.821C240.055 244.459 241.459 244.203 242.353 243.31C243.502 242.29 243.758 241.014 243.502 239.61Z" fill="#97DAF8"/>
<path d="M256.271 248.924C255.633 249.69 255.25 250.71 254.995 251.731C254.484 251.603 253.845 251.348 253.335 251.093C251.802 250.328 250.525 252.497 252.058 253.39C253.207 254.028 254.356 254.41 255.505 255.048C256.271 255.559 257.293 255.176 257.804 254.41C258.57 253.262 259.464 251.603 259.464 250.2C259.464 248.669 257.293 247.648 256.271 248.924Z" fill="#97DAF8"/>
<path d="M223.072 269.338C222.817 269.338 222.689 269.466 222.434 269.466C222.817 269.338 222.689 269.466 222.434 269.466H222.306C222.178 269.466 221.923 269.338 221.923 269.338C221.795 269.338 221.795 269.211 221.667 269.211L221.54 269.083C221.54 268.956 221.284 268.573 221.284 268.7C221.412 268.956 220.774 268.062 220.774 267.935C220.135 267.169 219.241 267.042 218.475 267.68C216.943 269.083 217.837 271.507 219.114 272.783C220.518 274.187 223.072 274.825 224.732 273.676C227.03 272.145 225.754 268.7 223.072 269.338Z" fill="#97DAF8"/>
<path d="M247.078 279.035C245.801 278.525 244.524 279.163 244.013 280.439C244.141 280.056 244.013 280.439 243.886 280.439L243.63 280.566C242.992 280.566 242.736 279.673 242.736 279.163C242.609 278.397 242.098 277.759 241.204 277.632C240.438 277.632 239.672 278.27 239.672 279.163C239.672 281.076 240.693 283.118 242.609 283.883C244.524 284.777 247.078 284.011 247.972 282.097C248.738 280.949 248.355 279.545 247.078 279.035Z" fill="#97DAF8"/>
<path d="M258.57 304.935C258.059 306.849 255.377 307.615 254.484 305.446C253.717 303.532 251.164 304.298 251.419 306.339C251.802 309.018 254.356 311.187 257.165 311.315C260.357 311.315 262.656 308.508 262.911 305.573C263.039 303.022 259.208 302.639 258.57 304.935Z" fill="#97DAF8"/>
<path d="M222.306 301.235C221.923 300.597 221.285 300.215 220.646 300.215C220.008 300.087 219.497 300.47 218.859 300.597C217.326 300.98 217.199 299.194 216.688 298.173C216.433 297.535 215.411 297.28 214.9 297.663C213.113 298.939 213.368 301.363 214.517 303.021C215.794 304.935 218.476 305.573 220.646 304.808C222.051 304.17 223.2 302.639 222.306 301.235Z" fill="#97DAF8"/>
<path d="M234.564 319.863C233.798 320.118 233.287 320.501 232.777 321.011L232.649 321.139C232.521 321.011 232.394 320.756 232.266 320.756C232.138 320.501 232.01 320.118 231.755 319.863C231.372 319.225 230.989 318.715 230.478 318.204C229.457 317.184 227.669 318.46 228.435 319.735C228.946 320.501 228.946 321.522 229.201 322.415C229.457 323.436 230.095 324.329 230.989 324.967C231.883 325.605 233.16 325.86 234.181 325.349C234.947 324.967 235.458 324.201 236.096 323.818C238.14 322.542 237.118 319.225 234.564 319.863Z" fill="#97DAF8"/>
<path d="M209.026 343.34C208.26 343.595 207.75 344.105 207.111 344.36C206.983 344.105 206.856 343.85 206.728 343.85C205.707 342.319 203.664 342.191 202.259 343.34C201.237 344.233 201.876 346.019 203.153 346.274C203.791 347.678 204.685 348.953 206.473 349.209C208.388 349.464 210.686 348.315 211.58 346.657C212.346 345.126 210.942 342.574 209.026 343.34Z" fill="#97DAF8"/>
<path d="M243.885 336.067C242.481 335.301 241.076 336.322 240.566 337.726C240.31 338.364 238.906 340.788 238.139 339.767C237.246 338.491 234.692 339.129 235.33 340.915C235.969 342.702 237.756 343.977 239.799 343.977C242.225 343.977 244.141 341.808 244.779 339.639C245.29 338.364 245.162 336.832 243.885 336.067Z" fill="#97DAF8"/>
<path d="M232.521 366.56C232.011 367.071 231.627 367.581 231.117 368.091C230.989 368.219 230.861 368.602 230.606 368.857C229.712 368.602 228.818 367.964 228.18 367.709C226.265 366.943 225.243 369.878 226.775 370.898C228.308 371.792 230.095 373.578 232.011 372.94C233.67 372.429 234.947 370.26 235.586 368.857C236.607 366.943 234.181 364.902 232.521 366.56Z" fill="#4DB7E8"/>
<path d="M269.934 342.957C269.168 342.957 268.402 343.084 267.763 343.467C267.253 343.722 266.87 344.36 266.231 344.488C266.103 344.36 265.976 344.232 265.976 344.105C265.593 343.595 265.337 342.957 265.21 342.446C264.699 340.788 262.017 341.043 262.145 342.829C262.273 344.87 262.911 347.167 264.826 348.188C265.848 348.698 266.997 348.698 268.019 348.315C268.913 347.932 269.551 347.039 270.317 346.784C272.616 346.019 272.232 343.084 269.934 342.957Z" fill="#4DB7E8"/>
<path d="M268.913 377.023C268.529 376.895 268.019 376.767 267.636 376.767C267.763 376.767 266.869 376.895 266.742 376.895C266.359 375.874 265.976 374.726 265.337 373.833C264.316 372.047 261.251 373.195 261.89 375.236C262.4 376.512 262.4 377.533 262.017 378.936C261.634 380.34 262.528 381.743 263.933 382.254C264.826 382.509 265.976 382.637 266.87 382.509C268.274 382.381 269.168 382.126 270.189 381.233C271.466 380.085 270.7 377.405 268.913 377.023Z" fill="#4DB7E8"/>
</g>
<defs>
<clipPath id="clip0">
<rect width="558" height="493" fill="white"/>
</clipPath>
</defs>
</svg>
